<?xml version="1.0" encoding="utf-8"?>
<!-- Generator: Adobe Illustrator 16.0.0, SVG Export Plug-In . SVG Version: 6.00 Build 0)  -->
<!DOCTYPE svg PUBLIC "-//W3C//DTD SVG 1.1//EN" "http://www.w3.org/Graphics/SVG/1.1/DTD/svg11.dtd">
<svg version="1.1" id="Layer_1" xmlns="http://www.w3.org/2000/svg" xmlns:xlink="http://www.w3.org/1999/xlink" x="0px" y="0px"
	 width="150px" height="150px" viewBox="0 0 150 150" enable-background="new 0 0 150 150" xml:space="preserve">
<g>
	<path fill="#F2B93B" d="M80.277,103.495c-1.144,0-2.09-0.947-2.09-2.09c0-1.17,0.946-2.09,2.09-2.09c1.17,0,2.116,0.92,2.116,2.09
		C82.394,102.547,81.447,103.495,80.277,103.495 M70.19,73.404c-1.14,0-2.09-0.951-2.09-2.09c0-1.17,0.95-2.09,2.09-2.09
		c1.143,0,2.09,0.92,2.09,2.09C72.28,72.453,71.333,73.404,70.19,73.404 M66.01,82.152c-2.312,0-4.178-1.867-4.178-4.18
		c0-2.314,1.866-4.18,4.178-4.18c2.314,0,4.181,1.865,4.181,4.18C70.19,80.285,68.324,82.152,66.01,82.152 M59.407,62.814
		c0-2.311,1.867-4.18,4.18-4.18c2.285,0,4.18,1.869,4.18,4.18c0,2.312-1.895,4.178-4.18,4.178
		C61.274,66.992,59.407,65.126,59.407,62.814 M76.489,57.882c-4.152,0-8.026-1.643-10.896-4.43
		c-1.561,0.725-3.259,1.086-5.017,1.086c-3.091,0-5.877-1.17-8.051-3.09v54.858c0,0.781,0.612,1.393,1.393,1.393h32.516
		c0.754,0,1.393-0.611,1.393-1.393V52.896C85.015,55.958,80.974,57.882,76.489,57.882"/>
	<path fill="#FFFFFF" d="M82.394,101.405c0,1.143-0.946,2.09-2.116,2.09c-1.144,0-2.09-0.947-2.09-2.09c0-1.17,0.946-2.09,2.09-2.09
		C81.447,99.315,82.394,100.235,82.394,101.405"/>
	<path fill="#FFFFFF" d="M70.19,77.972c0,2.312-1.866,4.178-4.18,4.178c-2.312,0-4.179-1.865-4.179-4.178
		c0-2.314,1.866-4.18,4.179-4.18C68.324,73.792,70.19,75.658,70.19,77.972"/>
	<path fill="#FFFFFF" d="M72.28,71.314c0,1.139-0.947,2.09-2.09,2.09c-1.14,0-2.09-0.951-2.09-2.09c0-1.17,0.95-2.09,2.09-2.09
		C71.333,69.224,72.28,70.144,72.28,71.314"/>
	<path fill="#FFFFFF" d="M67.767,62.814c0,2.312-1.895,4.178-4.18,4.178c-2.312,0-4.18-1.865-4.18-4.178
		c0-2.311,1.867-4.18,4.18-4.18C65.872,58.634,67.767,60.503,67.767,62.814"/>
	<path fill="#FFFFFF" d="M87.784,41.468c-0.416-4.207-3.983-7.523-8.329-7.523c-1.505,0-2.925,0.393-4.122,1.088
		c-0.893-1.254-2.008-2.344-3.289-3.178c-1.979-1.336-4.373-2.09-6.938-2.09c-6.631,0-12.062,5.156-12.538,11.676
		c0,0.291-0.024,0.561-0.024,0.852c0,0.014-0.006,0.027-0.006,0.041c0,1.537,0.454,2.961,1.203,4.182
		c1.415,2.307,3.937,3.861,6.84,3.861c2.346,0,4.434-1.018,5.904-2.615c0.006,0.01,0.009,0.021,0.014,0.033
		c1.924,3.51,5.657,5.902,9.976,5.902c4.789,0,8.875-2.98,10.549-7.182c0.514-1.297,0.818-2.703,0.818-4.182
		C87.841,42.052,87.841,41.744,87.784,41.468"/>
	<path fill="#FFFFFF" d="M118.014,54.923c-1.423-2.953-3.848-5.377-6.8-6.855c-1.7-0.863-3.621-1.393-5.629-1.504h-1.029v8.301
		v0.059h0.836c3.286,0.418,5.822,3.23,5.822,6.631v24.379c0,3.679-2.982,6.657-6.658,6.657v8.359c5.238,0,9.834-2.674,12.508-6.713
		c0.362-0.529,0.67-1.061,0.95-1.646c1.001-2.004,1.559-4.26,1.559-6.657V61.554C119.572,59.187,119.015,56.927,118.014,54.923"/>
	<path fill="#FFFFFF" d="M96.2,38.154c-2.312,0-4.18,1.865-4.18,4.18v63.972c0,3.09-2.506,5.572-5.572,5.572H53.933
		c-3.066,0-5.572-2.482-5.572-5.572V42.333c0-2.314-1.866-4.18-4.179-4.18c-2.313,0-4.18,1.865-4.18,4.18v63.972
		c0,7.689,6.239,13.93,13.931,13.93h32.516c7.691,0,13.931-6.24,13.931-13.93V42.333C100.379,40.019,98.514,38.154,96.2,38.154"/>
</g>
</svg>
