<?xml version="1.0" encoding="utf-8"?>
<!-- Generator: Adobe Illustrator 16.0.0, SVG Export Plug-In . SVG Version: 6.00 Build 0)  -->
<!DOCTYPE svg PUBLIC "-//W3C//DTD SVG 1.1//EN" "http://www.w3.org/Graphics/SVG/1.1/DTD/svg11.dtd">
<svg version="1.1" id="Layer_1" xmlns="http://www.w3.org/2000/svg" xmlns:xlink="http://www.w3.org/1999/xlink" x="0px" y="0px"
	 width="150px" height="150px" viewBox="0 0 150 150" enable-background="new 0 0 150 150" xml:space="preserve">
<g>
	<path fill="#C72D43" d="M100.515,45.633c-7.678-0.672-14.818,2.395-19.627,7.689l-2.808,4.17l3.522,7.924l-4.845,7.191l3.522,7.924
		l-4.846,7.193l3.523,7.924l-4.846,7.193l3.522,7.924l-4.845,7.191l0.042,0.094c0.633,0.875,1.239,1.756,1.817,2.643
		c0.006,0.012,0.011,0.012,0.019,0.002c15.849-16.99,45.55-28.268,47.397-49.381C123.206,58.27,113.558,46.774,100.515,45.633"/>
	<path fill="#C72D43" d="M72.866,110.362l-4.2-7.588l4.2-7.586l-4.2-7.588l4.2-7.59l-4.2-7.586l4.2-7.586l-4.2-7.588
		c0,0,2.216-4.109,2.11-3.961c0,0,0-0.004-0.004-0.004h-0.014c-0.002,0-0.002,0.002-0.002,0.002
		c-4.307-5.943-11.305-9.807-19.207-9.807c-13.092,0-23.707,10.609-23.707,23.707c0,20.229,26.061,33.742,40.873,50.85l-0.05-0.09
		L72.866,110.362z"/>
	<path fill="#FFFFFF" d="M34.029,73.577c-0.951,0-1.795-0.68-1.968-1.648c-0.213-1.197-0.32-2.422-0.32-3.643
		c0-7.602,4.122-14.621,10.757-18.314c0.966-0.539,2.183-0.191,2.72,0.773c0.539,0.965,0.191,2.184-0.774,2.721
		c-5.367,2.988-8.702,8.668-8.702,14.82c0,0.986,0.087,1.975,0.259,2.941c0.194,1.086-0.53,2.125-1.618,2.32
		C34.263,73.567,34.146,73.577,34.029,73.577"/>
	<path fill="#FFFFFF" d="M51.915,49.172c0,1.143-0.945,2.09-2.116,2.09c-1.144,0-2.09-0.947-2.09-2.09c0-1.17,0.946-2.09,2.09-2.09
		C50.97,47.083,51.915,48.002,51.915,49.172"/>
</g>
</svg>
