<?xml version="1.0" encoding="utf-8"?>
<!-- Generator: Adobe Illustrator 16.0.0, SVG Export Plug-In . SVG Version: 6.00 Build 0)  -->
<!DOCTYPE svg PUBLIC "-//W3C//DTD SVG 1.1//EN" "http://www.w3.org/Graphics/SVG/1.1/DTD/svg11.dtd">
<svg version="1.1" id="Layer_1" xmlns="http://www.w3.org/2000/svg" xmlns:xlink="http://www.w3.org/1999/xlink" x="0px" y="0px"
	 width="150px" height="150px" viewBox="0 0 150 150" enable-background="new 0 0 150 150" xml:space="preserve">
<g>
	<path fill="#C72D43" d="M94.215,43.481c-7.9,0-14.899,3.864-19.205,9.808c0,0,0-0.004-0.004-0.004h-0.014
		c-0.003,0-0.003,0.004-0.003,0.004c-4.306-5.943-11.305-9.808-19.206-9.808c-13.091,0-23.706,10.611-23.706,23.706
		c0,21.195,28.605,35.018,42.912,53.325c0.007,0.009,0.013,0.009,0.021,0c14.307-18.308,42.912-32.13,42.912-53.325
		C117.922,54.092,107.307,43.481,94.215,43.481"/>
	<path fill="#FFFFFF" d="M38.263,73.253c-0.951,0-1.795-0.681-1.967-1.649c-0.213-1.197-0.321-2.421-0.321-3.642
		c0-7.603,4.122-14.622,10.757-18.315c0.966-0.539,2.184-0.19,2.721,0.773c0.538,0.964,0.19,2.184-0.775,2.721
		c-5.367,2.988-8.702,8.669-8.702,14.821c0,0.985,0.087,1.975,0.26,2.94c0.193,1.087-0.532,2.126-1.618,2.32
		C38.498,73.244,38.379,73.253,38.263,73.253"/>
	<path fill="#FFFFFF" d="M56.149,48.849c0,1.143-0.945,2.09-2.115,2.09c-1.145,0-2.091-0.947-2.091-2.09
		c0-1.17,0.946-2.09,2.091-2.09C55.204,46.759,56.149,47.679,56.149,48.849"/>
</g>
</svg>
